# xmcd CD database file
#
# Track frame offsets:
#	187
#	20582
#	42572
#
# Disc length: 834 seconds
#
# Revision: 1
# Processed by: cddbd v1.5.1PL2 Copyright (c) Steve Scherf et al.
# Submitted via: CDex 1.51
#
DISCID=21034003
DTITLE=シャ乱Ｑ - そんなもんだろう
DYEAR=1997
DGENRE=J-POP
TTITLE0=そんなもんだろう
TTITLE1=心
TTITLE2=そんなもんだろう　カラオケ
EXTD=YEAR: 1997
EXTT0=
EXTT1=
EXTT2=
PLAYORDER=
